<?xml version="1.0" encoding="iso-8859-1"?>
<!-- Uploaded to: SVG Repo, www.svgrepo.com, Generator: SVG Repo Mixer Tools -->
<svg fill="#FFFFFF" height="800px" width="800px" version="1.1" id="Layer_1" xmlns="http://www.w3.org/2000/svg" xmlns:xlink="http://www.w3.org/1999/xlink" 
	 viewBox="0 0 512 512" xml:space="preserve">
<g transform="translate(1 1)">
	<g>
		<g>
			<path d="M237.933,203.8c-5.12,0-8.533,3.413-8.533,8.533c0,5.12,3.413,8.533,8.533,8.533c5.12,0,8.533-3.413,8.533-8.533
				C246.467,207.213,243.053,203.8,237.933,203.8z"/>
			<path d="M280.6,203.8c-5.12,0-8.533,3.413-8.533,8.533c0,5.12,3.413,8.533,8.533,8.533s8.533-3.413,8.533-8.533
				C289.133,207.213,285.72,203.8,280.6,203.8z"/>
			<path d="M323.267,203.8c-5.12,0-8.533,3.413-8.533,8.533c0,5.12,3.413,8.533,8.533,8.533s8.533-3.413,8.533-8.533
				C331.8,207.213,328.387,203.8,323.267,203.8z"/>
			<path d="M178.2,203.8H84.333c-5.12,0-8.533,3.413-8.533,8.533c0,5.12,3.413,8.533,8.533,8.533H178.2
				c5.12,0,8.533-3.413,8.533-8.533C186.733,207.213,183.32,203.8,178.2,203.8z"/>
			<path d="M84.333,186.733h59.733c5.12,0,8.533-3.413,8.533-8.533s-3.413-8.533-8.533-8.533H84.333
				c-5.12,0-8.533,3.413-8.533,8.533S79.213,186.733,84.333,186.733z"/>
			<path d="M280.6,161.133h17.067c9.387,0,17.067-7.68,17.067-17.067V127c0-9.387-7.68-17.067-17.067-17.067H280.6
				c-9.387,0-17.067,7.68-17.067,17.067v17.067C263.533,153.453,271.213,161.133,280.6,161.133z M280.6,127h17.067v17.067H280.6V127
				z"/>
			<path d="M476.867,169.667c0-20.963-14.452-37.981-34.133-41.841v-3.385c0-5.973-3.413-11.093-8.533-14.507
				s-11.947-3.413-17.067,0l-42.667,24.287v-24.287c0-14.507-11.093-25.6-25.6-25.6H212.333h-1.365l32.085-51.2h64.523
				C310.967,43.237,320.309,50.2,331.8,50.2H383c14.507,0,25.6-11.093,25.6-25.6C408.6,10.093,397.507-1,383-1h-51.2
				c-11.491,0-20.833,6.963-24.224,17.067h-69.643c-2.56,0-5.973,1.707-6.827,3.413l-40.533,64.853H147.48l-37.547-38.4
				c-8.533-8.533-20.48-12.8-32.427-12.8c-23.893,0-44.373,20.48-44.373,44.373V229.4c0,14.507,11.093,25.6,25.6,25.6h103.225
				c3.489,17.79,17.732,31.297,35.919,33.73L68.973,498.2c-2.56,4.267-1.707,9.387,2.56,11.947C72.387,511,74.093,511,75.8,511
				c2.56,0,5.973-1.707,7.68-3.413l120.32-195.52v190.4c0,5.12,3.413,8.533,8.533,8.533s8.533-3.413,8.533-8.533V311.213
				l120.32,195.52c1.707,2.56,5.12,4.267,7.68,4.267c1.707,0,3.413,0,4.267-1.707c3.413-2.56,5.12-7.68,2.56-11.947L227.277,288.67
				c17.955-2.607,31.973-16.039,35.431-33.67h86.159c14.507,0,25.6-11.093,25.6-25.6v-24.944l42.667,24.944
				c2.56,1.707,5.973,2.56,8.533,2.56s5.973-0.853,8.533-3.413c5.12-2.56,8.533-8.533,8.533-14.507v-2.532
				C462.414,207.648,476.867,190.63,476.867,169.667z M331.8,16.067H383c5.12,0,8.533,3.413,8.533,8.533s-3.413,8.533-8.533,8.533
				h-51.2c-5.12,0-8.533-3.413-8.533-8.533S326.68,16.067,331.8,16.067z M357.4,109.933v39.253v20.48h-128
				c-5.12,0-8.533-3.413-8.533-8.533V101.4h128C353.987,101.4,357.4,104.813,357.4,109.933z M220.867,272.067h-6.681
				c-1.604-0.47-3.343-0.516-5.034,0H203.8c-11.093,0-20.48-6.827-23.893-17.067h64.853
				C241.347,265.24,231.96,272.067,220.867,272.067z M357.4,229.4c0,5.12-3.413,8.533-8.533,8.533H255h-85.333H58.733
				c-5.12,0-8.533-3.413-8.533-8.533V77.507C50.2,63,63,50.2,77.507,50.2c7.68,0,14.507,2.56,19.627,7.68l40.96,40.96
				c1.707,1.707,3.413,2.56,5.973,2.56H203.8v59.733c0,14.507,11.093,25.6,25.6,25.6h128v2.56V229.4z M425.667,214.893l-51.2-29.867
				V178.2v-23.893l51.2-29.867v11.093V203.8V214.893z M442.733,194.413v-48.64c10.24,3.413,17.067,13.653,17.067,24.747
				S452.973,191,442.733,194.413z"/>
		</g>
	</g>
</g>
</svg>